<svg xmlns="http://www.w3.org/2000/svg" viewBox="0 0 64 64" fill="none">
  <defs>
    <linearGradient id="tile" x1="6" y1="6" x2="58" y2="58" gradientUnits="userSpaceOnUse">
      <stop stop-color="#06b6d4"/>
      <stop offset="1" stop-color="#0ea5e9"/>
    </linearGradient>
  </defs>
  <rect x="6" y="6" width="52" height="52" rx="14" fill="url(#tile)"/>
  <path d="M43.8 24.1C44.7 23.8 45.6 24.7 45.2 25.6L42.5 31.2C42.2 31.9 41.6 32.4 40.9 32.7L33.2 35.5L30.4 43.2C30.1 43.9 29.6 44.5 28.9 44.8L23.3 47.5C22.4 47.9 21.5 47 21.8 46.1L24.1 39.8L19 37.9C18.4 37.7 18.4 36.9 19 36.6L24.6 34L27.2 28.4C27.5 27.8 28.3 27.8 28.6 28.4L30.5 33.5L43.8 24.1Z" fill="white"/>
  <circle cx="45.5" cy="18.5" r="2.5" fill="#cffafe"/>
</svg>
